<svg xmlns="http://www.w3.org/2000/svg" xmlns:xlink="http://www.w3.org/1999/xlink" version="1.1" x="0px" y="0px" viewBox="0 0 100 125" enable-background="new 0 0 100 100" xml:space="preserve"><path d="M38.398,27.501c0.483,0.268,1.092,0.092,1.359-0.392c1.486-2.688,4.047-4.663,7.025-5.421  c0.535-0.136,0.859-0.679,0.723-1.214c-0.137-0.537-0.681-0.859-1.215-0.723c-3.512,0.893-6.531,3.223-8.283,6.391  c-0.221,0.399-0.14,0.884,0.167,1.191C38.239,27.397,38.314,27.454,38.398,27.501z M39.876,31.984  c-0.13,0.374-0.024,0.772,0.238,1.035c0.104,0.104,0.231,0.186,0.379,0.237c0.521,0.182,1.091-0.096,1.272-0.617  c1.558-4.483,5.165-7.267,9.898-7.636c0.551-0.043,0.962-0.523,0.919-1.075c-0.043-0.55-0.523-0.962-1.075-0.919  C45.945,23.444,41.707,26.714,39.876,31.984z M67.654,68.955c-0.489-0.254-1.094-0.063-1.348,0.427  c-1.414,2.726-3.923,4.769-6.883,5.604c-0.529,0.148-0.84,0.701-0.689,1.234c0.049,0.17,0.139,0.317,0.254,0.434  c0.248,0.248,0.619,0.357,0.979,0.257c3.489-0.986,6.447-3.394,8.114-6.608C68.336,69.813,68.15,69.211,67.654,68.955z   M66.063,64.516c0.166-0.527-0.123-1.092-0.65-1.258c-0.525-0.168-1.089,0.124-1.256,0.649c-1.44,4.522-4.975,7.399-9.697,7.893  c-0.549,0.058-0.947,0.55-0.891,1.099c0.024,0.237,0.131,0.447,0.287,0.604c0.205,0.205,0.498,0.32,0.812,0.288  C60.216,73.211,64.368,69.83,66.063,64.516z M77.516,34.301c0.922-1.195,0.518-3.875-2.547-6.939  c-3.064-3.063-5.744-3.466-6.938-2.545l-5.386,4.148c-0.699,0.203-1.388,0.059-2.248-0.137c-1.6-0.363-3.59-0.814-6.217,1.082  c-1.623,1.17-2.348,1.059-3.05,0.952c-0.426-0.064-0.958-0.146-1.545,0.079c-1.279,0.492-1.702,1.665-1.781,2.515  c-12.93,11.88-23.249,28.149-25.197,31.312c-0.839,1.356-0.719,3.008,0.291,4.018l0.002,0.002l10.644,10.646  c1.011,1.01,2.663,1.13,4.017,0.292c2.394-1.475,14.889-9.359,25.977-19.806c1.922-1.814,3.715-3.623,5.336-5.386  c0.85-0.081,2.026-0.51,2.518-1.79c0.223-0.585,0.143-1.116,0.078-1.544c-0.107-0.701-0.217-1.427,0.952-3.048  c1.897-2.627,1.445-4.617,1.082-6.217c-0.194-0.859-0.34-1.548-0.137-2.245L77.516,34.301z M62.165,58.462  C51.221,68.776,38.876,76.565,36.511,78.022c-0.475,0.295-1.16,0.387-1.552-0.005c0,0,0,0,0,0L24.313,67.373  c-0.392-0.391-0.299-1.078-0.004-1.555c1.168-1.895,11.623-18.588,24.456-30.524l18.272,18.272  C65.542,55.173,63.913,56.814,62.165,58.462z M68.825,52.527l-19.02-19.02c-0.125-0.56,0.711-1.241,1.21-0.742  c0.004,0.003,18.541,18.54,18.541,18.54s0.001,0.002,0.011,0.012C70.066,51.816,69.385,52.652,68.825,52.527z M70.801,46.98  c-0.475,0.659-0.784,1.231-0.997,1.745L53.607,32.528c0.514-0.214,1.085-0.522,1.744-0.997c1.895-1.367,3.149-1.083,4.604-0.752  c0.846,0.191,1.79,0.381,2.813,0.197l8.588,8.587c-0.184,1.023,0.006,1.969,0.198,2.814C71.884,43.831,72.169,45.085,70.801,46.98z   M72.352,37.73l-7.75-7.75l4.631-3.567c0.338-0.165,2.055,0.096,4.325,2.367c2.268,2.268,2.527,3.984,2.374,4.301L72.352,37.73z"/><text x="0" y="115" fill="#000000" font-size="5px" font-weight="bold" font-family="'Helvetica Neue', Helvetica, Arial-Unicode, Arial, Sans-serif">Created by Sergey Demushkin</text><text x="0" y="120" fill="#000000" font-size="5px" font-weight="bold" font-family="'Helvetica Neue', Helvetica, Arial-Unicode, Arial, Sans-serif">from the Noun Project</text></svg>